# xmcd
#
# Track frame offsets: 
#        183
#        23808
#        43288
#        63158
#        82520
#        111608
#        130220
#        154153
#        164908
#        190533
#        207150
#        221270
#        231143
#        244970
#
# Disc length: 3540 seconds
#
# Revision: 10
# Processed by: cddbd v1.5.2PL0 Copyright (c) Steve Scherf et al.
# Submitted via: ExactAudioCopyFreeDBPlugin 1.0
#
DISCID=bf0dd20e
DTITLE=Chris Rea - Dancing With Strangers (833 504-2) 
DYEAR=1987
DGENRE=Blues
TTITLE0=Joys Of Christmas
TTITLE1=I Can't Dance To That
TTITLE2=Windy Town
TTITLE3=Gonna Buy A Hat
TTITLE4=Curse Of The Traveller
TTITLE5=Let's Dance
TTITLE6=Que Sera
TTITLE7=Josie's Tune
TTITLE8=Loving You Again
TTITLE9=That Girl Of Mine
TTITLE10=September Blue
TTITLE11=I Don't Care Any More
TTITLE12=Donahue's Broken Wheel
TTITLE13=Danielle's Breakfast
EXTD=Produced by Chris Rea\n\nChris Rea: Guitars, Vocals, Bass, Organ\n
EXTD=Egohan 0´Neill: Bass\nMartin Ditcham: Drums\nLarry Donahue: Guita
EXTD=rs\nDavid Spillane: Pipes,Whistles\nKevin Leach: Piano YEAR: 1987
EXTT0=
EXTT1=
EXTT2=
EXTT3=
EXTT4=
EXTT5=
EXTT6=
EXTT7=
EXTT8=
EXTT9=
EXTT10=
EXTT11=
EXTT12=
EXTT13=
PLAYORDER=
